<svg width="74" height="60" viewBox="0 0 74 60" fill="none" xmlns="http://www.w3.org/2000/svg">
<rect opacity="0.1" x="4" y="4" width="52" height="52" rx="5" fill="black"/>
<mask id="path-2-inside-1" fill="white">
<path fill-rule="evenodd" clip-rule="evenodd" d="M74 23.5137C68.2097 19.4112 61.1364 17 53.5 17C33.8939 17 18 32.8939 18 52.5C18 55.0731 18.2738 57.5823 18.7937 60H20.8428C20.2913 57.5888 20 55.0784 20 52.5C20 33.9985 34.9985 19 53.5 19C61.2222 19 68.3342 21.6128 74 26.0027V23.5137Z"/>
</mask>
<path d="M74 23.5137H76V22.4796L75.1562 21.8818L74 23.5137ZM18.7937 60L16.8384 60.4205L17.1781 62H18.7937V60ZM20.8428 60V62H23.3518L22.7924 59.5541L20.8428 60ZM74 26.0027L72.7751 27.5837L76 30.0824V26.0027H74ZM53.5 19C60.7088 19 67.3803 21.2747 72.8438 25.1456L75.1562 21.8818C69.039 17.5477 61.5641 15 53.5 15V19ZM20 52.5C20 33.9985 34.9985 19 53.5 19V15C32.7893 15 16 31.7893 16 52.5H20ZM20.749 59.5795C20.2586 57.2991 20 54.9309 20 52.5H16C16 55.2154 16.2889 57.8655 16.8384 60.4205L20.749 59.5795ZM20.8428 58H18.7937V62H20.8428V58ZM18 52.5C18 55.2295 18.3084 57.8894 18.8931 60.4459L22.7924 59.5541C22.2742 57.2881 22 54.9273 22 52.5H18ZM53.5 17C33.8939 17 18 32.8939 18 52.5H22C22 35.103 36.103 21 53.5 21V17ZM75.2249 24.4217C69.2209 19.7698 61.6811 17 53.5 17V21C60.7633 21 67.4474 23.4559 72.7751 27.5837L75.2249 24.4217ZM76 26.0027V23.5137H72V26.0027H76Z" fill="black" mask="url(#path-2-inside-1)"/>
<path d="M33 59L28.5 50.5L29.5 45L33 44H39L45 47L55.5 44L45 42.5V38.5L38 39.5L33 36.5L38 34.5L39 28.5H42L45 29.5H47.5L51.5 28.5V33H55.5L58.5 31L58 25.5H53.5L49.5 26L45 25.5V22H49.5L47.5 20L51.5 18" stroke="black" stroke-width="2"/>
<circle cx="12" cy="12" r="11" stroke="black" stroke-width="2"/>
</svg>
