<svg width="109" height="52" viewBox="0 0 109 52" fill="none" xmlns="http://www.w3.org/2000/svg">
<rect opacity="0.1" x="15.7393" width="52" height="52" rx="5" fill="black"/>
<rect x="50.7393" y="7" width="2" height="39" fill="black"/>
<rect x="62.7393" y="7" width="2" height="37" fill="black"/>
<rect x="51.7393" y="11" width="11" height="2" fill="black"/>
<rect x="51.7393" y="19" width="11" height="2" fill="black"/>
<rect x="51.7393" y="27" width="11" height="2" fill="black"/>
<path fill-rule="evenodd" clip-rule="evenodd" d="M91.7393 43.4877C75.268 40.6422 62.7393 26.2842 62.7393 9H64.7393C64.7393 25.1764 76.3785 38.6343 91.7393 41.4559V43.4877Z" fill="black"/>
<path fill-rule="evenodd" clip-rule="evenodd" d="M17.7393 44C37.0692 44 52.7393 28.33 52.7393 9H50.7393C50.7393 27.2254 35.9647 42 17.7393 42V44Z" fill="black"/>
<path fill-rule="evenodd" clip-rule="evenodd" d="M85.9634 45.6957C86.7806 46.2283 87.8627 46.0937 88.5245 45.3773C90.4455 43.2978 93.1894 42 96.2393 42C101.871 42 106.467 46.4332 106.728 52H108.73C108.467 45.3282 102.975 40 96.2393 40C92.6085 40 89.3392 41.5481 87.0555 44.0202C85.095 42.7425 82.7539 42 80.2393 42C77.1124 42 74.2537 43.1481 72.0617 45.0459C69.0896 43.119 65.5452 42 61.7393 42C56.5601 42 51.8649 44.0723 48.4376 47.433C47.9277 47.933 47.4459 48.4614 46.9947 49.0158C46.7034 48.3684 46.3334 47.764 45.8969 47.2149C44.3397 45.256 41.9362 44 39.2393 44C36.5419 44 34.138 45.2565 32.5808 47.2161C32.1444 47.7653 31.7745 48.3698 31.4832 49.0174C31.0321 48.4629 30.5503 47.9343 30.0404 47.4343C26.613 44.0728 21.9173 42 16.7374 42C9.50024 42 3.20815 46.0463 0 52H2.31249C5.31634 47.1957 10.6537 44 16.7374 44C22.0607 44 26.8115 46.4444 29.9318 50.2796C30.3696 50.8177 31.055 51.0905 31.7429 51.0005C32.4307 50.9104 33.0228 50.4704 33.3073 49.8377C34.3264 47.5714 36.6015 46 39.2393 46C41.8767 46 44.1515 47.5709 45.1709 49.8365C45.4555 50.469 46.0475 50.9089 46.7352 50.9989C47.4229 51.0889 48.1082 50.8162 48.546 50.2782C51.6664 46.4438 56.4167 44 61.7393 44C65.1475 44 68.3158 45.0008 70.9737 46.724C71.7206 47.2083 72.6977 47.1406 73.3707 46.5579C75.2131 44.9629 77.6113 44 80.2393 44C82.3545 44 84.318 44.6233 85.9634 45.6957Z" fill="black"/>
<circle cx="30.2383" cy="14.5" r="7.5" stroke="black" stroke-width="2"/>
</svg>
